{"title":"Satyameva Jayate 2018 Hindi 720p PRE-DVDRip x264 AAC [MW]","magnet":"magnet:?xt=urn:btih:17960a9ed7b9e6ae07b841415839cfe46a2e8be4&dn=Satyameva+Jayate+2018+Hindi+720p+PRE-DVDRip+x264+AAC+%5BMW%5D&tr=udp%3A%2F%2Ftracker.leechers-paradise.org%3A6969&tr=udp%3A%2F%2Fzer0day.ch%3A1337&tr=udp%3A%2F%2Fopen.demonii.com%3A1337&tr=udp%3A%2F%2Ftracker.coppersurfer.tk%3A6969&tr=udp%3A%2F%2Fexodus.desync.com%3A6969","uploader":"MFreaky","categoryP":"video","categoryS":"movies","size":"1381667633","seeders":"3","leechers":"40","description":" <a href=\"https://pichub.site/image/S42I4\" rel=\"nofollow\" target=\"_NEW\">https://pichub.site/image/S42I4</a> <a href=\"\nhttps://pichub.site/image/S4lly\" rel=\"nofollow\" target=\"_NEW\">\nhttps://pichub.site/image/S4lly</a> <a href=\"\nhttps://pichub.site/image/S4Xy0\" rel=\"nofollow\" target=\"_NEW\">\nhttps://pichub.site/image/S4Xy0</a> <a href=\"\nhttps://pichub.site/image/S46qb\" rel=\"nofollow\" target=\"_NEW\">\nhttps://pichub.site/image/S46qb</a> <a href=\"\nhttps://pichub.site/image/S4nLV\" rel=\"nofollow\" target=\"_NEW\">\nhttps://pichub.site/image/S4nLV</a> <a href=\"\nhttps://pichub.site/image/S4sFT\" rel=\"nofollow\" target=\"_NEW\">\nhttps://pichub.site/image/S4sFT</a>\r\n\r\nVideo\r\nID : 1\r\nFormat : AVC\r\nFormat/Info : Advanced Video Codec\r\nFormat profile : High@L4.1\r\nFormat settings : CABAC / 4 Ref Frames\r\nFormat settings, CABAC : Yes\r\nFormat settings, RefFrames : 4 frames\r\nCodec ID : V_MPEG4/ISO/AVC\r\nDuration : 2 h 15 min\r\nBit rate : 1 200 kb/s\r\nWidth : 1 280 pixels\r\nHeight : 544 pixels\r\nDisplay aspect ratio : 2.35:1\r\nFrame rate mode : Constant\r\nFrame rate : 25.000 FPS\r\nColor space : YUV\r\nChroma subsampling : 4:2:0\r\nBit depth : 8 bits\r\nScan type : Progressive\r\nBits/(Pixel*Frame) : 0.069\r\nStream size : 1.13 GiB (88%)\r\nWriting library : x264 core 155 r2901 7d0ff22\r\nDefault : Yes\r\nForced : No\r\n\r\nAudio\r\nID : 2\r\nFormat : AAC\r\nFormat/Info : Advanced Audio Codec\r\nFormat profile : LC\r\nCodec ID : A_AAC-2\r\nDuration : 2 h 15 min\r\nBit rate : 161 kb/s\r\nChannel(s) : 2 channels\r\nChannel positions : Front: L R\r\nSampling rate : 48.0 kHz\r\nFrame rate : 46.875 FPS (1024 SPF)\r\nCompression mode : Lossy\r\nStream size : 155 MiB (12%)\r\nLanguage : Hindi\r\nDefault : Yes\r\nForced : No","last_updated":"2018-08-16T12:02:23.904Z","parsed":{"xt":"urn:btih:17960a9ed7b9e6ae07b841415839cfe46a2e8be4","dn":"Satyameva Jayate 2018 Hindi 720p PRE-DVDRip x264 AAC [MW]","tr":["udp://exodus.desync.com:6969","udp://open.demonii.com:1337","udp://tracker.coppersurfer.tk:6969","udp://tracker.leechers-paradise.org:6969","udp://zer0day.ch:1337"],"infoHash":"17960a9ed7b9e6ae07b841415839cfe46a2e8be4","infoHashBuffer":{"type":"Buffer","data":[23,150,10,158,215,185,230,174,7,184,65,65,88,57,207,228,106,46,139,228]},"name":"Satyameva Jayate 2018 Hindi 720p PRE-DVDRip x264 AAC [MW]","announce":["udp://exodus.desync.com:6969","udp://open.demonii.com:1337","udp://tracker.coppersurfer.tk:6969","udp://tracker.leechers-paradise.org:6969","udp://zer0day.ch:1337"],"urlList":[]}}